# xmcd
#
# Track frame offsets: 
#        150
#        71321
#        144140
#        217878
#
# Disc length: 3884 seconds
#
# Revision: 0
# Processed by: cddbd v1.5.2PL0 Copyright (c) Steve Scherf et al.
# Submitted via: ExactAudioCopy v0.99pb5
#
DISCID=2d0f2a04
DTITLE=The Beatles  - Beginning of the End Volume 1 - Disc 1
DYEAR=1900
DGENRE=
TTITLE0=Nagra Tape Roll 1A
TTITLE1=Nagra Tape Roll 2A
TTITLE2=Nagra Tape Roll 3A
TTITLE3=Nagra Tape Roll 4A
EXTD=
EXTT0=
EXTT1=
EXTT2=
EXTT3=
PLAYORDER=
